Coordinates
version=1
nRows=13
nColumns=22
inDegrees=yes

Units are S.I. units (second, meters, Newtons, ...)
If the header above contains a line with 'inDegrees', this indicates whether rotational values are in degrees (yes) or radians (no).

endheader
time	pelvis_tilt	pelvis_list	pelvis_rotation	pelvis_tx	pelvis_ty	pelvis_tz	hip_flexion_r	hip_adduction_r	hip_rotation_r	knee_angle_r	ankle_angle_r	subtalar_angle_r	hip_flexion_l	hip_adduction_l	hip_rotation_l	knee_angle_l	ankle_angle_l	subtalar_angle_l	lumbar_extension	lumbar_bending	lumbar_rotation
      3.98000000	      3.05661542	      0.09998555	    160.75294835	      0.21371491	      0.99263512	     -0.79086683	     -0.55347749	     -9.36526563	     -9.17667010	    -51.29679615	    -10.42105557	     20.02104828	     22.17580368	     -0.31973103	    -26.14758747	    -21.96143191	      3.93007655	    -14.61281433	     -3.01782430	     -8.77567389	      0.15231087
      3.99000000	      2.86726497	      0.04786384	    161.15266341	      0.20302442	      0.99398441	     -0.79032908	      0.75052616	     -9.68274021	     -8.88293318	    -53.30401464	     -9.93735135	     19.11604284	     21.30338347	      0.23510044	    -25.79610866	    -21.72585161	      4.36636156	    -14.77571360	     -3.20671011	     -8.73524193	     -0.07743396
      4.00000000	      2.73509598	     -0.01064100	    161.56079451	      0.19258521	      0.99523991	     -0.78976117	      2.13706656	     -9.93769116	     -8.55086431	    -55.12658202	     -9.26441297	     18.39876316	     20.48328294	      0.76572145	    -25.43103523	    -21.45571173	      4.72879956	    -14.84163456	     -3.33082466	     -8.68500588	     -0.30707234
      4.01000000	      2.63774464	     -0.03106920	    161.98019005	      0.18238843	      0.99644858	     -0.78918054	      3.55426024	    -10.08995914	     -8.20572637	    -56.73775497	     -8.48941874	     17.62981458	     19.69170848	      1.22499394	    -25.07380467	    -21.18542449	      5.11439109	    -14.85930865	     -3.43174257	     -8.58619715	     -0.54975300
      4.02000000	      2.57391089	     -0.00430189	    162.40928631	      0.17242473	      0.99763167	     -0.78858658	      4.99091921	    -10.12887318	     -7.85217637	    -58.12443715	     -7.66477448	     16.77668582	     18.91806012	      1.60938131	    -24.71308391	    -20.89787933	      5.52056566	    -14.82064800	     -3.51075544	     -8.42947269	     -0.79638606
      4.03000000	      2.54273394	      0.01077763	    162.86716500	      0.16272086	      0.99873305	     -0.78791398	      6.47336034	    -10.13312765	     -7.50944222	    -59.31960429	     -6.75417187	     16.14521544	     18.18791117	      1.99062455	    -24.31342469	    -20.59281965	      5.85339358	    -14.75651466	     -3.55917940	     -8.28335313	     -1.05366522
      4.04000000	      2.53173036	      0.05876829	    163.34965247	      0.15323132	      0.99979103	     -0.78718858	      7.95718040	    -10.05827903	     -7.18933803	    -60.29374794	     -5.82170025	     15.47286216	     17.47027856	      2.32346406	    -23.90394778	    -20.27250144	      6.19235848	    -14.66947740	     -3.60015564	     -8.10114808	     -1.32086444
      4.05000000	      2.52582567	      0.12916429	    163.87238336	      0.14390804	      1.00080657	     -0.78637247	      9.41882027	     -9.93159959	     -6.91291203	    -61.04463673	     -4.86665790	     14.84242246	     16.74882271	      2.63318316	    -23.46749878	    -19.92836502	      6.51811923	    -14.58242404	     -3.64695878	     -7.89695308	     -1.60575879
      4.06000000	      2.52283212	      0.21547762	    164.45064070	      0.13468952	      1.00177144	     -0.78542657	     10.84515121	     -9.77229139	     -6.69804020	    -61.56617889	     -3.90021659	     14.27456978	     16.01579431	      2.93511632	    -22.99409316	    -19.54809120	      6.82093346	    -14.50534312	     -3.69639816	     -7.67376915	     -1.92312765
      4.07000000	      2.51570232	      0.31883344	    165.09158498	      0.12552698	      1.00268315	     -0.78434394	     12.21871664	     -9.59002232	     -6.55461889	    -61.85834156	     -2.92737459	     13.76767975	     15.26269961	      3.23094823	    -22.47871967	    -19.13578555	      7.10744020	    -14.44072532	     -3.75199730	     -7.43168797	     -2.27815456
      4.08000000	      2.48668477	      0.44005089	    165.78199480	      0.11640649	      1.00354253	     -0.78315571	     13.52102886	     -9.38457580	     -6.45308660	    -61.93097296	     -1.90530854	     13.41054611	     14.47862762	      3.51023557	    -21.96964707	    -18.71481226	      7.39858928	    -14.40685209	     -3.83277815	     -7.17624516	     -2.66412324
      4.09000000	      2.47778715	      0.56612483	    166.57042158	      0.10724427	      1.00430985	     -0.78173182	     14.77983249	     -9.19624640	     -6.47539395	    -61.77667005	     -0.99338457	     12.94082268	     13.68302315	      3.81199116	    -21.31550387	    -18.22543323	      7.64165492	    -14.34426026	     -3.88257938	     -6.89804105	     -3.10963425
      4.10000000	      2.44081074	      0.70066512	    167.39652553	      0.09810737	      1.00500833	     -0.78022198	     15.96147906	     -9.00196505	     -6.51691869	    -61.42376779	     -0.03627503	     12.58989881	     12.85594619	      4.09612978	    -20.67866604	    -17.74172775	      7.90194135	    -14.30381196	     -3.96095868	     -6.61835418	     -3.57649522
